Zephyr_Regular.ufo
<glyph name="comma" format="2">
  <advance width="500"/>
  <unicode hex="002C"/>
  <outline>
    <contour>
      <point x="72.5811" y="120.161" type="line"/>
      <point x="162.903" y="120.161" type="line"/>
      <point x="162.903" y="104.032" type="line"/>
      <point x="57.2744" y="-170.461" type="line"/>
      <point x="0.258789" y="-170.461" type="line"/>
    </contour>
  </outline>
</glyph>
<glyph name="period" format="2">
  <advance width="122.58100000000002"/>
  <unicode hex="002E"/>
  <outline>
    <contour>
      <point x="122.581" y="55.6455" type="curve" smooth="yes"/>
      <point x="122.581" y="13.71"/>
      <point x="94.3545" y="-8.87109"/>
      <point x="61.29" y="-8.87109" type="curve" smooth="yes"/>
      <point x="28.2256" y="-8.87109"/>
      <point x="0" y="13.7148"/>
      <point x="0" y="55.6455" type="curve" smooth="yes"/>
      <point x="0" y="97.5762"/>
      <point x="28.2256" y="120.161"/>
      <point x="61.29" y="120.161" type="curve" smooth="yes"/>
      <point x="94.3545" y="120.161"/>
      <point x="122.581" y="97.5811"/>
    </contour>
  </outline>
</glyph>
<glyph name="H" format="2">
  <advance width="690"/>
  <unicode hex="0048"/>
  <outline>
    <contour>
      <point x="150" y="720" type="line"/>
      <point x="150" y="0" type="line"/>
      <point x="70" y="0" type="line"/>
      <point x="70" y="720" type="line"/>
    </contour>
    <contour>
      <point x="620" y="720" type="line"/>
      <point x="620" y="0" type="line"/>
      <point x="540" y="0" type="line"/>
      <point x="540" y="720" type="line"/>
    </contour>
    <contour>
      <point x="71" y="385" type="line"/>
      <point x="619" y="385" type="line"/>
      <point x="619" y="320" type="line"/>
      <point x="71" y="320" type="line"/>
    </contour>
  </outline>
</glyph>
<glyph name="a" format="2">
  <advance width="441"/>
  <unicode hex="0061"/>
  <outline>
    <contour>
      <point x="248" y="566" type="curve" smooth="yes"/>
      <point x="384" y="566"/>
      <point x="441" y="496"/>
      <point x="441" y="370" type="curve" smooth="yes"/>
      <point x="441" y="0" type="line"/>
      <point x="386" y="0" type="line"/>
      <point x="361" y="115" type="line"/>
      <point x="361" y="390" type="line" smooth="yes"/>
      <point x="361" y="453"/>
      <point x="334" y="501"/>
      <point x="245" y="501" type="curve" smooth="yes"/>
      <point x="138" y="501"/>
      <point x="70" y="440"/>
      <point x="70" y="440" type="curve"/>
      <point x="49" y="501" type="line"/>
      <point x="49" y="501"/>
      <point x="112" y="566"/>
    </contour>
    <contour>
      <point x="397" y="156" type="line"/>
      <point x="397" y="156"/>
      <point x="373" y="-12"/>
      <point x="182" y="-12" type="curve" smooth="yes"/>
      <point x="110" y="-12"/>
      <point x="1" y="22"/>
      <point x="1" y="138" type="curve" smooth="yes"/>
      <point x="1" y="243"/>
      <point x="85" y="327"/>
      <point x="382.263" y="326.613" type="curve"/>
      <point x="404.839" y="258.812" type="line"/>
      <point x="170" y="259"/>
      <point x="83" y="232"/>
      <point x="83" y="145" type="curve" smooth="yes"/>
      <point x="83" y="86"/>
      <point x="125" y="57"/>
      <point x="193" y="57" type="curve" smooth="yes"/>
      <point x="277" y="57"/>
      <point x="361" y="93"/>
      <point x="361" y="244" type="curve"/>
    </contour>
  </outline>
</glyph>
<glyph name="b" format="2">
  <advance width="612.3322"/>
  <unicode hex="0062"/>
  <outline>
    <contour>
      <point x="152.65429999999998" y="114.099" type="line"/>
      <point x="136.5254" y="0.806641" type="line"/>
      <point x="70" y="0.806641" type="line"/>
      <point x="70.39648" y="775" type="line"/>
      <point x="152.65429999999998" y="775" type="line"/>
      <point x="152.65429999999998" y="444.55" type="line"/>
      <point x="136.5254" y="272.5" type="line"/>
    </contour>
    <contour>
      <point x="562.3322" y="273.129" type="curve" smooth="yes"/>
      <point x="562.3322" y="30.7295"/>
      <point x="427.67920000000004" y="-13.4824"/>
      <point x="330.4752" y="-14.5166" type="curve" smooth="yes"/>
      <point x="233.2702" y="-13.4824"/>
      <point x="98.61909999999999" y="23.9951"/>
      <point x="98.61909999999999" y="273.129" type="curve" smooth="yes"/>
      <point x="98.61909999999999" y="522.263"/>
      <point x="233.2702" y="559.74"/>
      <point x="330.4752" y="560.774" type="curve" smooth="yes"/>
      <point x="427.67920000000004" y="559.74"/>
      <point x="562.3322" y="515.529"/>
    </contour>
    <contour>
      <point x="480.30819999999994" y="273.129" type="curve" smooth="yes"/>
      <point x="480.30819999999994" y="403.545"/>
      <point x="439.8962" y="491.827"/>
      <point x="330.4752" y="491.827" type="curve" smooth="yes"/>
      <point x="211.4262" y="491.827"/>
      <point x="148.3838" y="417.114"/>
      <point x="148.3838" y="273.129" type="curve" smooth="yes"/>
      <point x="148.3838" y="129.144"/>
      <point x="211.4262" y="54.4307"/>
      <point x="330.4752" y="54.4307" type="curve" smooth="yes"/>
      <point x="439.89419999999996" y="54.4307"/>
      <point x="480.30819999999994" y="142.713"/>
    </contour>
  </outline>
</glyph>
<glyph name="c" format="2">
  <advance width="551.973"/>
  <unicode hex="0063"/>
  <outline>
    <contour>
      <point x="461.985" y="86.0029" type="curve"/>
      <point x="486.973" y="18.5449" type="line"/>
      <point x="454.064" y="1.15625"/>
      <point x="389.476" y="-13.0615"/>
      <point x="324.26" y="-13.0615" type="curve" smooth="yes"/>
      <point x="192.271" y="-13.0615"/>
      <point x="60" y="60.9951"/>
      <point x="60" y="273.856" type="curve"/>
      <point x="151.7012" y="273.856" type="line"/>
      <point x="151.7012" y="259.34" type="line" smooth="yes"/>
      <point x="151.7012" y="117.403"/>
      <point x="215.59" y="55.1582"/>
      <point x="336.018" y="55.1582" type="curve" smooth="yes"/>
      <point x="385.916" y="55.1582"/>
      <point x="438.358" y="70.9951"/>
    </contour>
    <contour>
      <point x="461.985" y="461.71" type="line"/>
      <point x="438.358" y="476.718"/>
      <point x="385.916" y="492.555"/>
      <point x="336.018" y="492.555" type="curve" smooth="yes"/>
      <point x="215.59" y="492.555"/>
      <point x="151.7012" y="430.31"/>
      <point x="151.7012" y="288.373" type="curve" smooth="yes"/>
      <point x="151.7012" y="273.856" type="line"/>
      <point x="60" y="273.856" type="line"/>
      <point x="60" y="486.718"/>
      <point x="192.271" y="560.774"/>
      <point x="324.26" y="560.774" type="curve" smooth="yes"/>
      <point x="389.476" y="560.774"/>
      <point x="454.064" y="546.557"/>
      <point x="486.973" y="529.168" type="curve"/>
    </contour>
  </outline>
</glyph>
<glyph name="d" format="2">
  <advance width="612.331"/>
  <unicode hex="0064"/>
  <outline>
    <contour>
      <point x="459.678" y="114.099" type="line"/>
      <point x="475.807" y="272.5" type="line"/>
      <point x="459.678" y="444.55" type="line"/>
      <point x="459.678" y="775" type="line"/>
      <point x="541.9359999999999" y="775" type="line"/>
      <point x="542.331" y="0.806641" type="line"/>
      <point x="475.807" y="0.806641" type="line"/>
    </contour>
    <contour>
      <point x="50" y="273.129" type="curve" smooth="yes"/>
      <point x="50" y="515.529"/>
      <point x="184.65" y="559.74"/>
      <point x="281.856" y="560.774" type="curve" smooth="yes"/>
      <point x="379.062" y="559.74"/>
      <point x="513.713" y="522.263"/>
      <point x="513.713" y="273.129" type="curve" smooth="yes"/>
      <point x="513.713" y="23.9951"/>
      <point x="379.062" y="-13.4824"/>
      <point x="281.856" y="-14.5166" type="curve" smooth="yes"/>
      <point x="184.65" y="-13.4824"/>
      <point x="50" y="30.7295"/>
    </contour>
    <contour>
      <point x="132.02339999999998" y="273.129" type="curve" smooth="yes"/>
      <point x="132.02339999999998" y="142.713"/>
      <point x="172.438" y="54.4307"/>
      <point x="281.856" y="54.4307" type="curve" smooth="yes"/>
      <point x="400.905" y="54.4307"/>
      <point x="463.946" y="129.144"/>
      <point x="463.946" y="273.129" type="curve" smooth="yes"/>
      <point x="463.946" y="417.114"/>
      <point x="400.905" y="491.827"/>
      <point x="281.856" y="491.827" type="curve" smooth="yes"/>
      <point x="172.436" y="491.827"/>
      <point x="132.02339999999998" y="403.545"/>
    </contour>
  </outline>
</glyph>
<glyph name="e" format="2">
  <advance width="575"/>
  <unicode hex="0065"/>
  <outline>
    <contour>
      <point x="119" y="340" type="line"/>
      <point x="495" y="340" type="line"/>
      <point x="495" y="275" type="line"/>
      <point x="119" y="275" type="line"/>
    </contour>
    <contour>
      <point x="444" y="359" type="line" smooth="yes"/>
      <point x="445" y="435"/>
      <point x="400" y="500"/>
      <point x="301" y="500" type="curve"/>
      <point x="181" y="500"/>
      <point x="134" y="417"/>
      <point x="134" y="300" type="curve"/>
      <point x="133" y="254" type="line"/>
      <point x="133" y="137"/>
      <point x="197" y="53"/>
      <point x="312" y="53" type="curve" smooth="yes"/>
      <point x="422" y="53"/>
      <point x="468" y="125"/>
      <point x="468" y="125" type="curve" smooth="yes"/>
      <point x="516" y="77" type="line"/>
      <point x="516" y="77"/>
      <point x="458" y="-16"/>
      <point x="299" y="-16" type="curve" smooth="yes"/>
      <point x="127" y="-16"/>
      <point x="50" y="115.29958362979824"/>
      <point x="50" y="278" type="curve"/>
      <point x="50" y="445"/>
      <point x="141" y="565"/>
      <point x="298" y="565" type="curve" smooth="yes"/>
      <point x="434" y="565"/>
      <point x="525" y="474"/>
      <point x="525" y="328" type="curve" smooth="yes"/>
      <point x="525" y="292"/>
      <point x="522" y="275"/>
      <point x="522" y="275" type="curve"/>
      <point x="443" y="275" type="line"/>
      <point x="443" y="291" type="line"/>
    </contour>
  </outline>
</glyph>
<glyph name="f" format="2">
  <advance width="500"/>
  <unicode hex="0066"/>
  <outline>
    <contour>
      <point x="0" y="543" type="line"/>
      <point x="318.4" y="543" type="line"/>
      <point x="318.4" y="475.8" type="line"/>
      <point x="0" y="475.8" type="line"/>
    </contour>
    <contour>
      <point x="180.8" y="-1" type="line"/>
      <point x="99.2002" y="-1" type="line"/>
      <point x="99.2002" y="535" type="line"/>
      <point x="180.8" y="535" type="line"/>
    </contour>
    <contour>
      <point x="332.005" y="680.513" type="line"/>
      <point x="332.005" y="680.513"/>
      <point x="306.093" y="705.983"/>
      <point x="252.8" y="705.983" type="curve" smooth="yes"/>
      <point x="204.8" y="705.983"/>
      <point x="180.8" y="680.513"/>
      <point x="180.8" y="615.8" type="curve" smooth="yes"/>
      <point x="180.8" y="527" type="line"/>
      <point x="99.2002" y="527" type="line"/>
      <point x="99.2002" y="599" type="line" smooth="yes"/>
      <point x="99.2002" y="716.6"/>
      <point x="149.6" y="775"/>
      <point x="252.8" y="775" type="curve" smooth="yes"/>
      <point x="315.787" y="775"/>
      <point x="347.453" y="745.974"/>
      <point x="347.453" y="745.974" type="curve"/>
    </contour>
  </outline>
</glyph>
<glyph name="g" format="2">
  <advance width="503"/>
  <unicode hex="0067"/>
  <outline>
    <contour>
      <point x="463" y="385" type="curve" smooth="yes"/>
      <point x="463" y="243"/>
      <point x="343" y="202"/>
      <point x="249" y="202" type="curve" smooth="yes"/>
      <point x="195" y="202"/>
      <point x="31" y="226"/>
      <point x="31" y="385" type="curve" smooth="yes"/>
      <point x="31" y="515"/>
      <point x="138" y="568"/>
      <point x="249" y="568" type="curve" smooth="yes"/>
      <point x="302" y="568"/>
      <point x="463" y="556"/>
    </contour>
    <contour>
      <point x="113" y="384" type="curve" smooth="yes"/>
      <point x="113" y="309"/>
      <point x="163" y="268"/>
      <point x="249" y="268" type="curve" smooth="yes"/>
      <point x="327" y="268"/>
      <point x="381" y="302"/>
      <point x="381" y="385" type="curve" smooth="yes"/>
      <point x="381" y="468"/>
      <point x="332" y="501"/>
      <point x="249" y="501" type="curve" smooth="yes"/>
      <point x="189" y="501"/>
      <point x="113" y="482"/>
    </contour>
    <contour>
      <point x="35" y="163" type="curve" smooth="yes"/>
      <point x="35" y="219"/>
      <point x="84" y="265"/>
      <point x="167" y="265" type="curve"/>
      <point x="167" y="217" type="line"/>
      <point x="137" y="217"/>
      <point x="110" y="200"/>
      <point x="110" y="171" type="curve" smooth="yes"/>
      <point x="110" y="55"/>
      <point x="518" y="176"/>
      <point x="518" y="-54" type="curve" smooth="yes"/>
      <point x="518" y="-163"/>
      <point x="418" y="-224"/>
      <point x="248" y="-224" type="curve" smooth="yes"/>
      <point x="67" y="-224"/>
      <point x="-20" y="-162"/>
      <point x="-20" y="-54" type="curve" smooth="yes"/>
      <point x="-20" y="26"/>
      <point x="49" y="98"/>
      <point x="181" y="98" type="curve"/>
      <point x="163" y="50" type="line"/>
      <point x="112" y="50"/>
      <point x="61" y="15"/>
      <point x="61" y="-45" type="curve" smooth="yes"/>
      <point x="61" y="-125"/>
      <point x="124" y="-157"/>
      <point x="248" y="-157" type="curve" smooth="yes"/>
      <point x="361" y="-157"/>
      <point x="437" y="-118"/>
      <point x="437" y="-52" type="curve" smooth="yes"/>
      <point x="437" y="98"/>
      <point x="35" y="-29"/>
    </contour>
    <contour>
      <point x="363" y="497" type="line"/>
      <point x="363" y="497"/>
      <point x="400" y="582"/>
      <point x="506" y="586" type="curve"/>
      <point x="523" y="508" type="line"/>
      <point x="427" y="516"/>
      <point x="386" y="453"/>
      <point x="386" y="453" type="curve"/>
    </contour>
  </outline>
</glyph>
<glyph name="h" format="2">
  <advance width="575"/>
  <unicode hex="0068"/>
  <outline>
    <contour>
      <point x="150" y="775" type="line"/>
      <point x="150" y="0" type="line"/>
      <point x="70" y="0" type="line"/>
      <point x="70" y="775" type="line"/>
    </contour>
    <contour>
      <point x="317" y="496" type="curve" smooth="yes"/>
      <point x="216" y="496"/>
      <point x="150" y="423"/>
      <point x="150" y="320" type="curve"/>
      <point x="112" y="366" type="line"/>
      <point x="112" y="366"/>
      <point x="138" y="565"/>
      <point x="326.871" y="565.322" type="curve" smooth="yes"/>
      <point x="449" y="565"/>
      <point x="525" y="502"/>
      <point x="525" y="361" type="curve" smooth="yes"/>
      <point x="525" y="0" type="line"/>
      <point x="445" y="0" type="line"/>
      <point x="445" y="368" type="line" smooth="yes"/>
      <point x="445" y="465"/>
      <point x="398" y="496"/>
    </contour>
  </outline>
</glyph>
<glyph name="i" format="2">
  <advance width="500"/>
  <unicode hex="0069"/>
  <outline>
    <contour>
      <point x="99.042" y="541.773" type="line"/>
      <point x="99.042" y="-1.35742" type="line"/>
      <point x="17.5723" y="-1.35742" type="line"/>
      <point x="17.5723" y="179.686" type="line"/>
      <point x="17.5723" y="541.773" type="line"/>
    </contour>
    <contour>
      <point x="115.016" y="712.699" type="curve" smooth="yes"/>
      <point x="115.016" y="672.204"/>
      <point x="90.2559" y="650.399"/>
      <point x="57.5078" y="650.399" type="curve" smooth="yes"/>
      <point x="24.7607" y="650.399"/>
      <point x="0" y="672.208"/>
      <point x="0" y="712.699" type="curve" smooth="yes"/>
      <point x="0" y="753.19"/>
      <point x="24.7607" y="775"/>
      <point x="57.5078" y="775" type="curve" smooth="yes"/>
      <point x="90.2559" y="775"/>
      <point x="115.016" y="753.195"/>
    </contour>
  </outline>
</glyph>
<glyph name="j" format="2">
  <advance width="500"/>
  <unicode hex="006A"/>
  <outline>
    <contour>
      <point x="199.686" y="545.44" type="line"/>
      <point x="199.686" y="10.8486" type="line"/>
      <point x="119.497" y="10.8486" type="line"/>
      <point x="119.497" y="189.046" type="line"/>
      <point x="119.497" y="545.44" type="line"/>
    </contour>
    <contour>
      <point x="18.0781" y="-143.467" type="line"/>
      <point x="18.0781" y="-143.467"/>
      <point x="41.667" y="-155.817"/>
      <point x="69.9688" y="-155.817" type="curve" smooth="yes"/>
      <point x="91.9814" y="-155.817"/>
      <point x="119.497" y="-149.528"/>
      <point x="119.497" y="-107.861" type="curve" smooth="yes"/>
      <point x="119.497" y="21.8555" type="line"/>
      <point x="199.686" y="21.8555" type="line"/>
      <point x="199.686" y="-112.579" type="line" smooth="yes"/>
      <point x="199.686" y="-194.34"/>
      <point x="153.302" y="-225"/>
      <point x="82.5469" y="-225" type="curve" smooth="yes"/>
      <point x="23.585" y="-225"/>
      <point x="1.02441" y="-203.773"/>
      <point x="1.02441" y="-203.773" type="curve"/>
    </contour>
    <contour>
      <point x="215.409" y="713.68" type="curve" smooth="yes"/>
      <point x="215.409" y="673.82"/>
      <point x="191.038" y="652.358"/>
      <point x="158.805" y="652.358" type="curve" smooth="yes"/>
      <point x="126.572" y="652.358"/>
      <point x="102.201" y="673.824"/>
      <point x="102.201" y="713.68" type="curve" smooth="yes"/>
      <point x="102.201" y="753.534"/>
      <point x="126.572" y="775"/>
      <point x="158.805" y="775" type="curve" smooth="yes"/>
      <point x="191.038" y="775"/>
      <point x="215.409" y="753.538"/>
    </contour>
  </outline>
</glyph>
<glyph name="k" format="2">
  <advance width="439"/>
  <unicode hex="006B"/>
  <outline>
    <contour>
      <point x="80" y="0" type="line"/>
      <point x="0" y="0" type="line"/>
      <point x="0" y="775" type="line"/>
      <point x="80" y="775" type="line"/>
    </contour>
    <contour>
      <point x="80" y="291" type="line"/>
      <point x="339" y="550" type="line"/>
      <point x="444" y="550" type="line"/>
      <point x="171" y="276" type="line"/>
      <point x="80" y="193" type="line"/>
      <point x="31.2617" y="190.121" type="line"/>
    </contour>
    <contour>
      <point x="459" y="0" type="line"/>
      <point x="356" y="0" type="line"/>
      <point x="123.862" y="268.136" type="line"/>
      <point x="176" y="317" type="line"/>
    </contour>
  </outline>
</glyph>
<glyph name="l" format="2">
  <advance width="500"/>
  <unicode hex="006C"/>
  <outline>
    <contour>
      <point x="88.71" y="775" type="line"/>
      <point x="88.71" y="234.678" type="line"/>
      <point x="6.45117" y="234.678" type="line"/>
      <point x="6.45117" y="775" type="line"/>
    </contour>
    <contour>
      <point x="192.747" y="73.1533" type="curve"/>
      <point x="210.238" y="11.29" type="line"/>
      <point x="210.238" y="11.29"/>
      <point x="187.097" y="-10.4834"/>
      <point x="126.613" y="-10.4834" type="curve" smooth="yes"/>
      <point x="54.0322" y="-10.4834"/>
      <point x="6.45117" y="20.9678"/>
      <point x="6.45117" y="104.839" type="curve" smooth="yes"/>
      <point x="6.45117" y="242.742" type="line"/>
      <point x="88.71" y="242.742" type="line"/>
      <point x="88.71" y="109.678" type="line" smooth="yes"/>
      <point x="88.71" y="66.9355"/>
      <point x="116.936" y="60.4834"/>
      <point x="139.517" y="60.4834" type="curve" smooth="yes"/>
      <point x="168.549" y="60.4834"/>
      <point x="192.747" y="73.1533"/>
    </contour>
  </outline>
</glyph>
<glyph name="m" format="2">
  <advance width="933"/>
  <unicode hex="006D"/>
  <outline>
    <contour>
      <point x="135" y="550" type="line"/>
      <point x="150" y="450" type="line"/>
      <point x="150" y="0" type="line"/>
      <point x="70" y="0" type="line"/>
      <point x="70" y="550" type="line"/>
    </contour>
    <contour>
      <point x="309" y="500" type="curve" smooth="yes"/>
      <point x="212" y="500"/>
      <point x="147" y="423"/>
      <point x="147" y="320" type="curve"/>
      <point x="112" y="376" type="line"/>
      <point x="112" y="376"/>
      <point x="139" y="565"/>
      <point x="320" y="565" type="curve" smooth="yes"/>
      <point x="437" y="565"/>
      <point x="505" y="494"/>
      <point x="505" y="358" type="curve" smooth="yes"/>
      <point x="505" y="0" type="line"/>
      <point x="428" y="0" type="line"/>
      <point x="428" y="362" type="line" smooth="yes"/>
      <point x="428" y="461"/>
      <point x="391" y="500"/>
    </contour>
    <contour>
      <point x="667" y="500" type="curve" smooth="yes"/>
      <point x="570" y="500"/>
      <point x="505" y="423"/>
      <point x="505" y="320" type="curve"/>
      <point x="470" y="376" type="line"/>
      <point x="470" y="376"/>
      <point x="497" y="565"/>
      <point x="678" y="565" type="curve" smooth="yes"/>
      <point x="795" y="565"/>
      <point x="863" y="494"/>
      <point x="863" y="358" type="curve" smooth="yes"/>
      <point x="863" y="0" type="line"/>
      <point x="786" y="0" type="line"/>
      <point x="786" y="362" type="line" smooth="yes"/>
      <point x="786" y="461"/>
      <point x="749" y="500"/>
    </contour>
  </outline>
</glyph>
<glyph name="n" format="2">
  <advance width="584"/>
  <unicode hex="006E"/>
  <outline>
    <contour>
      <point x="135" y="550" type="line"/>
      <point x="150" y="450" type="line"/>
      <point x="150" y="0" type="line"/>
      <point x="70" y="0" type="line"/>
      <point x="70" y="550" type="line"/>
    </contour>
    <contour>
      <point x="320" y="500" type="curve" smooth="yes"/>
      <point x="219" y="500"/>
      <point x="150" y="423"/>
      <point x="150" y="320" type="curve"/>
      <point x="112" y="376" type="line"/>
      <point x="112" y="376"/>
      <point x="141" y="565"/>
      <point x="330" y="565" type="curve" smooth="yes"/>
      <point x="461" y="565"/>
      <point x="534" y="502"/>
      <point x="534" y="344" type="curve" smooth="yes"/>
      <point x="534" y="0" type="line"/>
      <point x="454" y="0" type="line"/>
      <point x="454" y="362" type="line" smooth="yes"/>
      <point x="454" y="461"/>
      <point x="407" y="500"/>
    </contour>
  </outline>
</glyph>
<glyph name="o" format="2">
  <advance width="616.129"/>
  <unicode hex="006F"/>
  <outline>
    <contour>
      <point x="484.106" y="273.129" type="line"/>
      <point x="484.106" y="403.545"/>
      <point x="426.905" y="495.054"/>
      <point x="308.064" y="495.054" type="curve" smooth="yes"/>
      <point x="189.224" y="495.054"/>
      <point x="132.02339999999998" y="403.545"/>
      <point x="132.02339999999998" y="273.129" type="curve"/>
      <point x="50" y="273.129" type="line"/>
      <point x="50" y="515.529"/>
      <point x="210.859" y="559.74"/>
      <point x="308.064" y="560.774" type="curve" smooth="yes"/>
      <point x="405.27" y="559.74"/>
      <point x="566.129" y="515.529"/>
      <point x="566.129" y="273.129" type="curve"/>
    </contour>
    <contour>
      <point x="484.106" y="273.129" type="curve"/>
      <point x="566.129" y="273.129" type="line"/>
      <point x="566.129" y="30.7295"/>
      <point x="405.27" y="-13.4824"/>
      <point x="308.064" y="-14.5166" type="curve" smooth="yes"/>
      <point x="210.859" y="-13.4824"/>
      <point x="50" y="30.7295"/>
      <point x="50" y="273.129" type="curve"/>
      <point x="132.02339999999998" y="273.129" type="line"/>
      <point x="132.02339999999998" y="142.713"/>
      <point x="189.224" y="51.2051"/>
      <point x="308.064" y="51.2051" type="curve" smooth="yes"/>
      <point x="426.905" y="51.2051"/>
      <point x="484.106" y="142.713"/>
    </contour>
  </outline>
</glyph>
<glyph name="p" format="2">
  <advance width="612.3322"/>
  <unicode hex="0070"/>
  <outline>
    <contour>
      <point x="152.65429999999998" y="435.901" type="line"/>
      <point x="136.5254" y="277.5" type="line"/>
      <point x="152.65429999999998" y="105.45" type="line"/>
      <point x="152.65429999999998" y="-225" type="line"/>
      <point x="70.39648" y="-225" type="line"/>
      <point x="70" y="549.193" type="line"/>
      <point x="136.5254" y="549.193" type="line"/>
    </contour>
    <contour>
      <point x="562.3322" y="276.871" type="curve" smooth="yes"/>
      <point x="562.3322" y="34.4707"/>
      <point x="427.67920000000004" y="-9.74023"/>
      <point x="330.4752" y="-10.7744" type="curve" smooth="yes"/>
      <point x="233.2702" y="-9.74023"/>
      <point x="98.61909999999999" y="27.7373"/>
      <point x="98.61909999999999" y="276.871" type="curve" smooth="yes"/>
      <point x="98.61909999999999" y="526.005"/>
      <point x="233.2702" y="563.482"/>
      <point x="330.4752" y="564.517" type="curve" smooth="yes"/>
      <point x="427.67920000000004" y="563.482"/>
      <point x="562.3322" y="519.271"/>
    </contour>
    <contour>
      <point x="480.30819999999994" y="276.871" type="curve" smooth="yes"/>
      <point x="480.30819999999994" y="407.287"/>
      <point x="439.89419999999996" y="495.569"/>
      <point x="330.4752" y="495.569" type="curve" smooth="yes"/>
      <point x="211.4262" y="495.569"/>
      <point x="148.3838" y="420.856"/>
      <point x="148.3838" y="276.871" type="curve" smooth="yes"/>
      <point x="148.3838" y="132.886"/>
      <point x="211.4262" y="58.1729"/>
      <point x="330.4752" y="58.1729" type="curve" smooth="yes"/>
      <point x="439.8962" y="58.1729"/>
      <point x="480.30819999999994" y="146.455"/>
    </contour>
  </outline>
</glyph>
<glyph name="q" format="2">
  <advance width="500"/>
  <unicode hex="0071"/>
  <outline>
    <contour>
      <point x="409.678" y="435.901" type="line"/>
      <point x="425.807" y="549.193" type="line"/>
      <point x="492.331" y="549.193" type="line"/>
      <point x="491.936" y="-225" type="line"/>
      <point x="409.678" y="-225" type="line"/>
      <point x="409.678" y="105.45" type="line"/>
      <point x="425.807" y="277.5" type="line"/>
    </contour>
    <contour>
      <point x="0" y="276.871" type="curve" smooth="yes"/>
      <point x="0" y="519.271"/>
      <point x="134.65" y="563.482"/>
      <point x="231.856" y="564.517" type="curve" smooth="yes"/>
      <point x="329.062" y="563.482"/>
      <point x="463.713" y="526.005"/>
      <point x="463.713" y="276.871" type="curve" smooth="yes"/>
      <point x="463.713" y="27.7373"/>
      <point x="329.062" y="-9.74023"/>
      <point x="231.856" y="-10.7744" type="curve" smooth="yes"/>
      <point x="134.65" y="-9.74023"/>
      <point x="0" y="34.4707"/>
    </contour>
    <contour>
      <point x="82.0234" y="276.871" type="curve" smooth="yes"/>
      <point x="82.0234" y="146.455"/>
      <point x="122.436" y="58.1729"/>
      <point x="231.856" y="58.1729" type="curve" smooth="yes"/>
      <point x="350.905" y="58.1729"/>
      <point x="413.946" y="132.886"/>
      <point x="413.946" y="276.871" type="curve" smooth="yes"/>
      <point x="413.946" y="420.856"/>
      <point x="350.905" y="495.569"/>
      <point x="231.856" y="495.569" type="curve" smooth="yes"/>
      <point x="122.438" y="495.569"/>
      <point x="82.0234" y="407.287"/>
    </contour>
  </outline>
</glyph>
<glyph name="r" format="2">
  <advance width="391.84520000000003"/>
  <unicode hex="0072"/>
  <outline>
    <contour>
      <point x="147.6543" y="435.901" type="line"/>
      <point x="147.6543" y="0.806641" type="line"/>
      <point x="65.39648" y="0.806641" type="line"/>
      <point x="65" y="549.193" type="line"/>
      <point x="131.5254" y="549.193" type="line"/>
    </contour>
    <contour>
      <point x="324.2662" y="565.322" type="curve" smooth="yes"/>
      <point x="346.8272" y="565.322"/>
      <point x="356.84520000000003" y="561.215"/>
      <point x="356.84520000000003" y="561.215" type="curve"/>
      <point x="356.84520000000003" y="491.859" type="line"/>
      <point x="356.84520000000003" y="491.859"/>
      <point x="342.90720000000005" y="495.968"/>
      <point x="324.2662" y="495.968" type="curve" smooth="yes"/>
      <point x="216.4792" y="495.968"/>
      <point x="147.6543" y="423.488"/>
      <point x="147.6543" y="356.139" type="curve"/>
      <point x="109.3506" y="340.243" type="line"/>
      <point x="109.3506" y="456.567"/>
      <point x="179.4412" y="565.322"/>
    </contour>
  </outline>
</glyph>
<glyph name="s" format="2">
  <advance width="500"/>
  <unicode hex="0073"/>
  <outline>
    <contour>
      <point x="400.898" y="521.668" type="curve"/>
      <point x="378.738" y="452.65" type="line"/>
      <point x="326.808" y="479.877"/>
      <point x="276.785" y="495.644"/>
      <point x="210.79" y="495.644" type="curve" smooth="yes"/>
      <point x="124.623" y="495.644"/>
      <point x="94.1514" y="463.102"/>
      <point x="94.1514" y="407.458" type="curve" smooth="yes"/>
      <point x="94.1514" y="281.733"/>
      <point x="427.419" y="368.289"/>
      <point x="427.419" y="153.777" type="curve" smooth="yes"/>
      <point x="427.419" y="16.0723"/>
      <point x="311.656" y="-10.4834"/>
      <point x="210.79" y="-10.4834" type="curve" smooth="yes"/>
      <point x="109.926" y="-10.4834"/>
      <point x="49.2021" y="12.4326"/>
      <point x="0.00488281" y="43.8613" type="curve"/>
      <point x="36.8916" y="110.65" type="line"/>
      <point x="78.4756" y="77.2842"/>
      <point x="143.463" y="57.4775"/>
      <point x="210.79" y="57.4775" type="curve" smooth="yes"/>
      <point x="290.936" y="57.4775"/>
      <point x="337.097" y="78.5615"/>
      <point x="337.097" y="145.713" type="curve" smooth="yes"/>
      <point x="337.097" y="282.396"/>
      <point x="7.78516" y="191.414"/>
      <point x="7.78516" y="401.007" type="curve" smooth="yes"/>
      <point x="7.78516" y="505.371"/>
      <point x="78.2734" y="563.71"/>
      <point x="210.79" y="563.71" type="curve" smooth="yes"/>
      <point x="278.873" y="563.71"/>
      <point x="337.097" y="554.579"/>
    </contour>
  </outline>
</glyph>
<glyph name="t" format="2">
  <advance width="468"/>
  <unicode hex="0074"/>
  <outline>
    <contour>
      <point x="231" y="690" type="line"/>
      <point x="231" y="235" type="line"/>
      <point x="150" y="235" type="line"/>
      <point x="150" y="550" type="line"/>
      <point x="166" y="690" type="line"/>
    </contour>
    <contour>
      <point x="413" y="82" type="curve"/>
      <point x="423" y="13" type="line"/>
      <point x="423" y="13"/>
      <point x="390" y="-16"/>
      <point x="317" y="-16" type="curve" smooth="yes"/>
      <point x="199" y="-16"/>
      <point x="150" y="49"/>
      <point x="150" y="136" type="curve" smooth="yes"/>
      <point x="150" y="243" type="line"/>
      <point x="231" y="243" type="line"/>
      <point x="231" y="131" type="line" smooth="yes"/>
      <point x="231" y="75"/>
      <point x="260" y="50"/>
      <point x="322" y="50" type="curve" smooth="yes"/>
      <point x="382" y="50"/>
      <point x="413" y="82"/>
    </contour>
    <contour>
      <point x="55" y="550" type="line"/>
      <point x="416" y="550" type="line"/>
      <point x="416" y="485" type="line"/>
      <point x="55" y="485" type="line"/>
    </contour>
  </outline>
</glyph>
<glyph name="u" format="2">
  <advance width="594"/>
  <unicode hex="0075"/>
  <outline>
    <contour>
      <point x="459" y="0" type="line"/>
      <point x="444" y="100" type="line"/>
      <point x="444" y="550" type="line"/>
      <point x="524" y="550" type="line"/>
      <point x="524" y="0" type="line"/>
    </contour>
    <contour>
      <point x="274" y="50" type="curve" smooth="yes"/>
      <point x="375" y="50"/>
      <point x="444" y="127"/>
      <point x="444" y="230" type="curve"/>
      <point x="482" y="174" type="line"/>
      <point x="482" y="174"/>
      <point x="453" y="-15"/>
      <point x="264" y="-15" type="curve" smooth="yes"/>
      <point x="133" y="-15"/>
      <point x="60" y="48"/>
      <point x="60" y="206" type="curve" smooth="yes"/>
      <point x="60" y="550" type="line"/>
      <point x="140" y="550" type="line"/>
      <point x="140" y="188" type="line" smooth="yes"/>
      <point x="140" y="89"/>
      <point x="187" y="50"/>
    </contour>
  </outline>
</glyph>
<glyph name="v" format="2">
  <advance width="500"/>
  <unicode hex="0076"/>
  <outline>
    <contour>
      <point x="229.032" y="0.470703" type="line"/>
      <point x="-0.00488281" y="549.193" type="line"/>
      <point x="96.7744" y="549.193" type="line"/>
      <point x="272.576" y="99.2773" type="line"/>
      <point x="448.387" y="549.193" type="line"/>
      <point x="545.156" y="549.193" type="line"/>
      <point x="316.129" y="0.470703" type="line"/>
      <point x="272.576" y="0.470703" type="line"/>
    </contour>
  </outline>
</glyph>
<glyph name="x" format="2">
  <advance width="555"/>
  <unicode hex="0078"/>
  <outline>
    <contour>
      <point x="280" y="320" type="line"/>
      <point x="139" y="550" type="line"/>
      <point x="49" y="550" type="line"/>
      <point x="235" y="263" type="line"/>
      <point x="50" y="0" type="line"/>
      <point x="136" y="0" type="line"/>
      <point x="284" y="219" type="line"/>
      <point x="434" y="0" type="line"/>
      <point x="520" y="0" type="line"/>
      <point x="329" y="271" type="line"/>
      <point x="506" y="550" type="line"/>
      <point x="411" y="550" type="line"/>
    </contour>
  </outline>
</glyph>
<glyph name="y" format="2">
  <advance width="500"/>
  <unicode hex="0079"/>
  <outline>
    <contour>
      <point x="225.04" y="13.9727" type="line"/>
      <point x="-0.00488281" y="553.13" type="line"/>
      <point x="95.0869" y="553.13" type="line"/>
      <point x="267.824" y="111.057" type="line"/>
      <point x="440.57" y="553.13" type="line"/>
      <point x="535.653" y="553.13" type="line"/>
      <point x="310.618" y="13.9727" type="line"/>
      <point x="267.824" y="13.9727" type="line"/>
    </contour>
    <contour>
      <point x="73.8877" y="-130.206" type="line"/>
      <point x="73.8877" y="-130.206"/>
      <point x="99.5537" y="-158.439"/>
      <point x="152.339" y="-158.439" type="curve" smooth="yes"/>
      <point x="208.399" y="-158.439"/>
      <point x="231.379" y="14.3027"/>
      <point x="231.379" y="14.3027" type="curve"/>
      <point x="267.885" y="111.005" type="line"/>
      <point x="304.196" y="13.9004" type="line"/>
      <point x="275.952" y="-80.0205" type="line" smooth="yes"/>
      <point x="247.427" y="-168.011"/>
      <point x="231.379" y="-223.796"/>
      <point x="152.339" y="-223.796" type="curve" smooth="yes"/>
      <point x="89.9512" y="-223.796"/>
      <point x="58.5859" y="-195.044"/>
      <point x="58.5859" y="-195.044" type="curve"/>
    </contour>
  </outline>
</glyph>
<glyph name="z" format="2">
  <advance width="485"/>
  <unicode hex="007A"/>
  <outline>
    <contour>
      <point x="50" y="550" type="line"/>
      <point x="50" y="485" type="line"/>
      <point x="345" y="485" type="line"/>
      <point x="40" y="55" type="line"/>
      <point x="40" y="0" type="line"/>
      <point x="450" y="0" type="line"/>
      <point x="450" y="65" type="line"/>
      <point x="143" y="65" type="line"/>
      <point x="443" y="495" type="line"/>
      <point x="444" y="550" type="line"/>
    </contour>
  </outline>
</glyph>
<glyph name="braceleft" format="2">
  <advance width="500"/>
  <unicode hex="007B"/>
  <outline>
    <contour>
      <point x="248" y="695.406" type="line"/>
      <point x="189.594" y="718.6"/>
      <point x="141.951" y="708.897"/>
      <point x="141.951" y="658.2" type="curve" smooth="yes"/>
      <point x="141.951" y="533.935"/>
      <point x="269.563" y="319"/>
      <point x="110.839" y="319" type="curve" smooth="yes"/>
      <point x="25.5996" y="319" type="line"/>
      <point x="25.5996" y="353.24" type="line"/>
      <point x="63.1621" y="353.24" type="line" smooth="yes"/>
      <point x="194.81" y="353.24"/>
      <point x="61.5625" y="520.669"/>
      <point x="61.5625" y="658.2" type="curve" smooth="yes"/>
      <point x="61.5625" y="750.613"/>
      <point x="129.313" y="792.015"/>
      <point x="248" y="767.005" type="curve"/>
    </contour>
    <contour>
      <point x="248" y="-57.4062" type="curve"/>
      <point x="248" y="-129.005" type="line"/>
      <point x="129.313" y="-154.015"/>
      <point x="61.5625" y="-112.613"/>
      <point x="61.5625" y="-20.2002" type="curve" smooth="yes"/>
      <point x="61.5625" y="117.331"/>
      <point x="194.81" y="284.76"/>
      <point x="63.1621" y="284.76" type="curve" smooth="yes"/>
      <point x="25.5996" y="284.76" type="line"/>
      <point x="25.5996" y="319" type="line"/>
      <point x="110.839" y="319" type="line" smooth="yes"/>
      <point x="269.563" y="319"/>
      <point x="141.951" y="104.065"/>
      <point x="141.951" y="-20.2002" type="curve" smooth="yes"/>
      <point x="141.951" y="-70.8975"/>
      <point x="189.594" y="-80.5996"/>
    </contour>
  </outline>
</glyph>
<glyph name="braceright" format="2">
  <advance width="362.4"/>
  <unicode hex="007D"/>
  <outline>
    <contour>
      <point x="80" y="695.406" type="curve"/>
      <point x="80" y="767.005" type="line"/>
      <point x="198.687" y="792.015"/>
      <point x="266.438" y="750.613"/>
      <point x="266.438" y="658.2" type="curve" smooth="yes"/>
      <point x="266.438" y="520.669"/>
      <point x="133.1904" y="353.24"/>
      <point x="264.839" y="353.24" type="curve" smooth="yes"/>
      <point x="302.4" y="353.24" type="line"/>
      <point x="302.4" y="319" type="line"/>
      <point x="217.161" y="319" type="line" smooth="yes"/>
      <point x="58.436499999999995" y="319"/>
      <point x="186.049" y="533.935"/>
      <point x="186.049" y="658.2" type="curve" smooth="yes"/>
      <point x="186.049" y="708.897"/>
      <point x="138.4072" y="718.6"/>
    </contour>
    <contour>
      <point x="80" y="-57.4062" type="line"/>
      <point x="138.4072" y="-80.5996"/>
      <point x="186.049" y="-70.8975"/>
      <point x="186.049" y="-20.2002" type="curve" smooth="yes"/>
      <point x="186.049" y="104.065"/>
      <point x="58.436499999999995" y="319"/>
      <point x="217.161" y="319" type="curve" smooth="yes"/>
      <point x="302.4" y="319" type="line"/>
      <point x="302.4" y="284.76" type="line"/>
      <point x="264.839" y="284.76" type="line" smooth="yes"/>
      <point x="133.1904" y="284.76"/>
      <point x="266.438" y="117.331"/>
      <point x="266.438" y="-20.2002" type="curve" smooth="yes"/>
      <point x="266.438" y="-112.613"/>
      <point x="198.687" y="-154.015"/>
      <point x="80" y="-129.005" type="curve"/>
    </contour>
  </outline>
</glyph>
<glyph name="emdash" format="2">
  <advance width="605"/>
  <unicode hex="2014"/>
  <outline>
    <contour>
      <point x="70" y="320" type="line"/>
      <point x="70" y="255" type="line"/>
      <point x="535" y="255" type="line"/>
      <point x="535" y="320" type="line"/>
    </contour>
  </outline>
</glyph>
